<?xml version="1.0"?>
<svg width="200" height="50" xmlns="http://www.w3.org/2000/svg" xmlns:svg="http://www.w3.org/2000/svg" stroke="null" style="vector-effect: non-scaling-stroke;">
 <g stroke="null">
  <title stroke="null">Layer 1</title>
  <g stroke="null" id="svg_17">
   <path stroke="null" stroke-width="0" id="svg_3" fill="#afb3b4" d="m47.245886,12.172581l-1.237115,0l-0.645121,0.013041l-0.672634,0.026547l-0.685441,0.039588l-0.685916,0.066135l-0.685916,0.079176l-0.699198,0.105257l-0.699198,0.145311l-0.67216,0.184899l-0.685916,0.211446l-0.658878,0.264075l-0.645121,0.303662l-0.618558,0.369332l-0.578237,0.422426l-0.564956,0.475521l-0.510879,0.514643l-0.443521,0.554696l-0.376637,0.580778l-0.336317,0.607325l-0.295523,0.633872l-0.242395,0.659954l-0.214882,0.67346l-0.16128,0.686501l-0.134717,0.699542l-0.107678,0.699542l-0.08064,0.700007l-0.053602,0.699542l-0.053602,1.386508l-0.013756,1.332948l0,0.567737l0,0.607325l0.013756,0.620831l0.026564,0.659954l0.04032,0.67346l0.067358,0.699542l0.107678,0.686501l0.12096,0.713048l0.16128,0.712582l0.2016,0.700007l0.242395,0.686501l0.295523,0.686501l0.349599,0.646913l0.403675,0.633406l0.456803,0.581244l0.537917,0.567737l0.564956,0.475055l0.578237,0.422426l0.618558,0.356291l0.631839,0.317169l0.67216,0.264075l0.685916,0.21098l0.685916,0.184899l0.699198,0.13227l0.699198,0.118764l0.699198,0.079176l0.685441,0.065669l0.672634,0.039588l0.67216,0.026547l0.645121,0.013506l0.632314,0l0.591519,0l0.591519,0l0.605276,0l0.645596,-0.013506l0.67216,-0.026547l0.685441,-0.039588l0.685916,-0.065669l0.699198,-0.079176l0.699198,-0.118764l0.578237,-0.105723l-0.443521,-0.67346l-0.242395,-0.369798l-0.228164,-0.382838l-0.215357,-0.422426l-0.2016,-0.462014l-0.188319,-0.514643l-0.147998,-0.554696l-0.067358,-0.34325l-0.026564,-0.34325l-0.013756,-0.092217l0,0l0.013756,-0.34325l0.026564,-0.34325l0.094396,-0.515108l0.16128,-0.514643l-0.067358,-0.290622l-0.107678,-0.277115l-0.255202,0.19794l-0.268959,0.184899l-0.282241,0.158352l-0.295997,0.145311l-0.551199,0.21098l-0.564956,0.158352l-0.578237,0.13227l-0.618558,0.079176l-0.631839,0.066135l-0.645121,0.039588l-0.645596,0.013041l-0.67216,0l-0.672634,0l-0.67216,-0.013041l-0.645596,-0.039588l-0.631839,-0.066135l-0.605276,-0.079176l-0.591519,-0.13227l-0.551199,-0.158352l-0.537917,-0.21098l-0.268959,-0.118764l-0.241921,-0.145311l-0.483841,-0.33021l-0.443995,-0.395879l-0.403201,-0.448973l-0.215357,-0.277115l-0.2016,-0.33021l-0.188319,-0.369798l-0.188319,-0.422426l-0.174562,-0.475055l-0.147998,-0.528149l-0.134717,-0.607325l-0.12096,-0.659954l-0.053602,-0.356757l-0.04032,-0.382838l-0.04032,-0.40892l-0.04032,-0.422892l-0.027038,-0.448508l-0.013282,-0.462014l-0.013756,-0.488561l0,-0.515108l0.013756,-0.937069l0.04032,-0.8714l0.053602,-0.792224l0.04032,-0.369798l0.04032,-0.356291l0.107678,-0.659954l0.134717,-0.607325l0.134242,-0.554696l0.175037,-0.501602l0.187844,-0.448973l0.202075,-0.395879l0.228164,-0.369798l0.242395,-0.33021l0.403201,-0.435467l0.443995,-0.369798l0.483841,-0.316703l0.510879,-0.251034l0.537917,-0.21098l0.551199,-0.158352l0.591519,-0.13227l0.605276,-0.092217l0.631839,-0.066135l0.645596,-0.039588l0.67216,-0.026547l0.672634,0l0.658878,0l0.658878,0.026547l0.631839,0.039588l0.631839,0.066135l0.618558,0.092217l0.591519,0.13227l0.564956,0.158352l0.551199,0.21098l0.510879,0.251034l0.484315,0.316703l0.443521,0.369798l0.416957,0.435467l0.147998,0.184899l0.147524,0.224487l0.147998,0.237527l0.147998,0.264075l0.134717,0.290622l0.134242,0.33021l0.12096,0.369332l0.12096,0.409385l0.107678,0.435467l0.094396,0.488561l0.093922,0.528149l0.067358,0.580778l0.066884,0.620831l0.04032,0.686501l0.013756,0.75217l0.013282,0.792224l-0.013282,0.818771l-0.027038,0.75217l0.188319,0.211446l0.16128,0.21098l0.147998,0.237993l0.134242,0.250568l0,-0.356291l0.054076,-0.34325l0.093922,-0.33021l0.147998,-0.290156l0.188319,-0.264075l0.228639,-0.224487l0.268959,-0.184899l0.295523,-0.131804l0.2016,-0.053094l0.188319,-0.026547l0.202075,0l0.187844,0.013506l0.202075,0.039588l0.187844,0.052629l0.363355,0.171858l0.335843,0.250568l0.295997,0.303662l0.241921,0.356757l0.094396,0.21098l0.08064,0.211446l0.053602,0.184899l0.027038,-0.34325l0.067358,-0.317169l0.12096,-0.303662l0.16128,-0.264075l0.2016,-0.237527l0.241921,-0.19794l0.268959,-0.145311l0.295997,-0.092217l0.241921,-0.026547l0.241921,0l0.242395,0.039588l0.228164,0.079176l-0.053602,-1.293826l-0.067358,-0.713048l-0.08064,-0.699542l-0.12096,-0.713048l-0.134242,-0.699542l-0.16128,-0.699542l-0.202075,-0.67346l-0.241921,-0.67346l-0.282241,-0.633406l-0.323035,-0.620831l-0.389919,-0.580778l-0.430239,-0.54119l-0.483841,-0.501602l-0.551199,-0.475521l-0.591994,-0.422426l-0.604801,-0.369332l-0.645596,-0.303662l-0.67216,-0.264075l-0.67216,-0.211446l-0.699198,-0.184899l-0.699198,-0.145311l-0.699198,-0.105257l-0.699198,-0.079176l-0.685916,-0.066135l-0.685916,-0.039588l-0.658878,-0.026547l-0.645121,-0.013041l-0.632314,0l-0.591519,0z"/>
   <path stroke="null" stroke-width="0" id="svg_4" fill="#afb3b4" d="m20.626807,37.947337l0,-0.079642l-0.295997,-0.75217l-0.268959,-0.765677l-0.349599,-1.162021l-0.282241,-1.175062l-12.558995,0l-0.282241,0l-0.255677,-0.013041l-0.241921,-0.013041l-0.228639,-0.026547l-0.2016,-0.052629l-0.175037,-0.053094l-0.147524,-0.079176l-0.12096,-0.105723l-0.081115,-0.079176l-0.066884,-0.092217l-0.12096,-0.251034l-0.08064,-0.277115l-0.027038,-0.316703l0,-6.165467l13.835956,0l0,-0.184899l-0.013282,-1.029751l0,-0.990163l0.013282,-1.729293l-13.835956,0l0,-5.307573l0.013282,-0.303662l0.04032,-0.329744l0.04032,-0.171858l0.08064,-0.171392l0.094396,-0.158352l0.134242,-0.145311l0.147998,-0.105723l0.16128,-0.092217l0.16128,-0.066135l0.16128,-0.039588l0.350073,-0.053094c0.116535,-0.004345 0.233064,-0.008695 0.349599,-0.013041l12.679481,0l0.107678,-0.620366l0.134242,-0.620831l0,-0.013041l0.147998,-0.67346l0.175037,-0.646913l0.188319,-0.646913l0.2016,-0.620366l0.04032,-0.092217l-16.283622,0l-0.510879,0.013041l-0.551199,0.039588l-0.268959,0.039588l-0.268959,0.066135l-0.268959,0.079176l-0.268959,0.092217l-0.255202,0.119229l-0.242395,0.158352l-0.228164,0.184899l-0.228639,0.21098l-0.188319,0.264075l-0.175037,0.290622l-0.16128,0.316703l-0.12096,0.34325l-0.093922,0.369798l-0.081115,0.382838l-0.04032,0.382838l-0.013282,0.395879l0,18.641245l0.013282,0.515108l0.04032,0.54119l0.027038,0.264075l0.067358,0.264075l0.16128,0.528149l0.12096,0.250568l0.147998,0.251034l0.175037,0.237527l0.2016,0.224487l0.214882,0.184899l0.215357,0.158352l0.228639,0.13227l0.228639,0.105257l0.241921,0.079176l0.241921,0.066135l0.497597,0.066135l0.524161,0.026547l0.537917,0l16.7409,0z"/>
   <path stroke="null" stroke-width="0" id="svg_5" fill="#afb3b4" d="m74.824351,38.458017l0,-9.307815l12.07468,0l0.578237,-0.026081l0.551199,-0.066135l0.537917,-0.105723l0.524161,-0.158352l0.497597,-0.184899l0.457277,-0.21098l0.416957,-0.251034l0.376163,-0.277115l0.363355,-0.34325l0.322561,-0.369798l0.282241,-0.395879l0.241921,-0.435933l0.215357,-0.448973l0.174562,-0.462014l0.161755,-0.475055l0.12096,-0.501602l0.188319,-1.00367l0.066884,-0.488561l0.04032,-0.488096l0.04032,-0.488561l0.013756,-0.448973l0.013282,-0.435467l0,-0.422426l0,-0.858359l-0.053602,-0.910987l-0.094396,-0.937535l-0.16128,-0.937069l-0.107678,-0.462014l-0.134242,-0.448973l-0.16128,-0.435467l-0.188319,-0.435933l-0.215357,-0.409385l-0.241921,-0.382838l-0.282241,-0.356291l-0.309279,-0.34325l-0.403675,-0.356291l-0.416483,-0.303662l-0.443995,-0.251034l-0.456803,-0.19794l-0.457277,-0.145311l-0.457277,-0.118764l-0.443521,-0.092217l-0.443995,-0.053094l-0.443521,-0.026547l-0.403675,-0.013041l-0.389919,-0.013041l-0.362881,0l-12.249716,0l-0.457277,0.013041l-0.497123,0.052629l-0.511354,0.119229l-0.255202,0.079176l-0.255677,0.105257l-0.241921,0.119229l-0.241921,0.144845l-0.215357,0.184899l-0.228639,0.19794l-0.2016,0.224487l-0.16128,0.224487l-0.147998,0.237527l-0.107678,0.251034l-0.147524,0.501602l-0.08064,0.488561l-0.027038,0.501602l0,0.488561l0,22.35133l4.840782,0zm0,0l0,0zm0,-13.254961l0,-7.511921l0.013282,-0.34325l0.04032,-0.33021l0.027038,-0.158352l0.066884,-0.145311l0.081115,-0.13227l0.107204,-0.131804l0.147998,-0.118764l0.134717,-0.092682l0.147524,-0.065669l0.147998,-0.039588l0.309279,-0.026547l0.268959,0l7.825891,0l0.443521,0.013041l0.510879,0.026547l0.537917,0.092217l0.551199,0.158817l0.268959,0.105257l0.242395,0.145311l0.241921,0.158352l0.214882,0.198405l0.202075,0.237527l0.16128,0.250568l0.147998,0.277581l0.107204,0.303662l0.16128,0.633406l0.094396,0.660419l0.053602,0.646913l0,0.606859l0,0.264075l0,0.290622l-0.013282,0.303662l-0.027038,0.33021l-0.026564,0.329744l-0.054076,0.33021l-0.067358,0.33021l-0.093922,0.316703l-0.107678,0.316703l-0.12096,0.290622l-0.147998,0.264075l-0.188319,0.237527l-0.214882,0.224487l-0.241921,0.184899l-0.242395,0.158352l-0.255202,0.118764l-0.268959,0.092682l-0.282241,0.079176l-0.268959,0.052629l-0.282715,0.026547l-0.564481,0.039588l-0.551199,0l-9.237569,0z"/>
   <path stroke="null" stroke-width="0" id="svg_6" fill="#afb3b4" d="m117.368208,38.458017l0,-3.934572l-13.75579,0l-0.282241,0l-0.255202,-0.013041l-0.242395,-0.013041l-0.228639,-0.026547l-0.2016,-0.052629l-0.174562,-0.053094l-0.147998,-0.079176l-0.12096,-0.105723l-0.08064,-0.079176l-0.067358,-0.092217l-0.12096,-0.251034l-0.08064,-0.277115l-0.027038,-0.316703l0,-6.165467l15.275146,0l0,-3.934106l-15.275146,0l0,-5.307573l0.013282,-0.303662l0.04032,-0.329744l0.04032,-0.171858l0.081115,-0.171392l0.093922,-0.158352l0.134242,-0.145311l0.147998,-0.105723l0.16128,-0.092217l0.161755,-0.066135l0.16128,-0.039588l0.349599,-0.053094l0.349599,-0.013041l13.903314,0l0,-3.934106l-16.511787,0l-0.511354,0.013041l-0.551199,0.039588l-0.268959,0.039588l-0.268959,0.066135l-0.268959,0.079176l-0.268959,0.092217l-0.255202,0.119229l-0.241921,0.158352l-0.228639,0.184899l-0.228639,0.21098l-0.188319,0.264075l-0.175037,0.290622l-0.16128,0.316703l-0.12096,0.34325l-0.093922,0.369798l-0.08064,0.382838l-0.04032,0.382838l-0.013756,0.395879l0,18.641245l0.013756,0.515108l0.04032,0.54119l0.026564,0.264075l0.067358,0.264075l0.16128,0.528149l0.12096,0.250568l0.147998,0.251034l0.175037,0.237527l0.2016,0.224487l0.214882,0.184899l0.215357,0.158352l0.228639,0.13227l0.228639,0.105257l0.241921,0.079176l0.241921,0.066135l0.497597,0.066135l0.524635,0.026547l0.537443,0l16.7409,0z"/>
   <path stroke="null" stroke-width="0" id="svg_7" fill="#afb3b4" d="m135.036469,38.458017l0.739518,-0.013506l0.685916,-0.066135l0.658878,-0.092217l0.604801,-0.131804l0.564956,-0.158817l0.537917,-0.184433l0.483841,-0.211446l0.457277,-0.237527l0.430239,-0.237527l0.376637,-0.264075l0.349599,-0.264075l0.322561,-0.277581l0.295997,-0.277115l0.268959,-0.277115l0.228639,-0.264075l0.2016,-0.264075l0.376163,-0.554696l0.323035,-0.580778l0.282241,-0.620366l0.255677,-0.646913l0.214882,-0.659954l0.188319,-0.67346l0.16128,-0.699542l0.12096,-0.686501l0.107678,-0.686501l0.08064,-0.686501l0.067358,-0.67346l0.04032,-0.659954l0.027038,-0.646913l0.026564,-0.607325l0.013756,-0.581244l0,-0.554231l-0.013756,-1.21465l-0.053602,-1.241197l-0.04032,-0.633406l-0.067358,-0.633872l-0.093922,-0.633406l-0.107678,-0.633872l-0.134717,-0.633872l-0.174562,-0.620366l-0.215357,-0.620366l-0.255202,-0.607325l-0.295997,-0.594284l-0.335843,-0.580778l-0.389919,-0.554696l-0.443995,-0.54119l-0.403201,-0.422426l-0.430239,-0.395879l-0.484315,-0.382838l-0.524161,-0.369798l-0.551674,-0.33021l-0.604801,-0.290156l-0.645596,-0.264075l-0.685441,-0.224487l-0.726236,-0.184899l-0.779838,-0.131804l-0.833914,-0.079642l-0.860478,-0.026081l-10.084765,0l-0.376163,0.013041l-0.336317,0.039588l-0.322561,0.053094l-0.282715,0.092217l-0.255202,0.092217l-0.242395,0.118764l-0.214882,0.105723l-0.188319,0.13227l-0.174562,0.131804l-0.134717,0.118764l-0.12096,0.118764l-0.107678,0.105723l-0.188319,0.237527l-0.16128,0.251034l-0.147998,0.264075l-0.107204,0.264075l-0.147998,0.528149l-0.08064,0.514643l-0.04032,0.515108l0,0.501602l0,18.746968l0.013282,0.356291l0.027038,0.317169l0.053602,0.303662l0.067358,0.277115l0.093922,0.250568l0.094396,0.211446l0.107204,0.19794l0.107678,0.184899l0.255677,0.303662l0.12096,0.118764l0.12096,0.105723l0.053602,0.052629l0.081115,0.053094l0.12096,0.065669l0.134242,0.079176l0.175037,0.092682l0.214882,0.079176l0.255677,0.079176l0.282241,0.066135l0.322561,0.065669l0.363355,0.039588l0.403201,0.026547l0.457277,0.013506l10.447646,0zm0,0l0,0zm-9.533566,-20.780389l0.013756,-0.21098l0.026564,-0.198405l0.107678,-0.369332l0.08064,-0.171858l0.08064,-0.131804l0.107678,-0.118764l0.107678,-0.105723l0.134242,-0.092217l0.134717,-0.066135l0.147998,-0.053094l0.16128,-0.026081l0.295523,-0.026547l0.255677,0l5.042382,0l0.457277,0l0.470559,0.026547l0.470559,0.052629l0.483841,0.066135l0.497597,0.092217l0.484315,0.13227l0.483841,0.158352l0.484315,0.184899l0.456803,0.237527l0.443995,0.277115l0.403201,0.317169l0.389919,0.369332l0.376637,0.448973l0.322561,0.488561l0.268959,0.514643l0.215357,0.541656l0.174562,0.554231l0.147998,0.567737l0.107678,0.580778l0.08064,0.581244l0.053602,0.593819l0.027038,0.594284l0.027038,1.148515l-0.013756,0.54119l0,0.515108l-0.026564,0.501602l-0.013756,0.475055l-0.026564,0.448973l-0.04032,0.422426l-0.04032,0.395879l-0.04032,0.382838l-0.054076,0.356757l-0.04032,0.34325l-0.12096,0.633406l-0.12096,0.554696l-0.134717,0.475521l-0.147524,0.422426l-0.161755,0.369332l-0.147524,0.33021l-0.16128,0.277115l-0.282715,0.435933l-0.322561,0.382838l-0.349599,0.34325l-0.376637,0.290156l-0.403201,0.251034l-0.443995,0.21098l-0.470559,0.171858l-0.510879,0.131804l-0.537917,0.092682l-0.578237,0.079176l-0.618558,0.039588l-0.658878,0.013041l-5.593582,0l-0.335843,-0.013041l-0.336317,-0.039588l-0.16128,-0.039588l-0.147998,-0.066135l-0.134242,-0.105723l-0.134717,-0.118764l-0.12096,-0.158352l-0.093922,-0.158352l-0.054076,-0.171858l-0.04032,-0.171392l-0.027038,-0.382838l0,-0.382838l0,-15.037348z"/>
   <path stroke="null" stroke-width="0" id="svg_8" fill="#afb3b4" d="m144.583317,38.444511l5.095984,0l2.622229,-6.640521l12.39724,0l2.649267,6.640521l5.109266,0l-9.708128,-23.618608l-0.241921,-0.514643l-0.241921,-0.475521l-0.268959,-0.40892l-0.268959,-0.356757l-0.295997,-0.303662l-0.322561,-0.250568l-0.336317,-0.211446l-0.376637,-0.171392l-0.416483,-0.118764l-0.443995,-0.079176l-0.483841,-0.053094l-0.537917,-0.013041l-0.551199,0.013041l-0.497597,0.053094l-0.457277,0.079176l-0.416957,0.118764l-0.362881,0.171392l-0.349599,0.211446l-0.309279,0.250568l-0.282241,0.303662l-0.268959,0.356757l-0.255677,0.40892l-0.241921,0.475521l-0.228639,0.514643l-9.708128,23.618608zm0,0l0,0zm13.204117,-20.872605l0.08064,-0.21098l0.094396,-0.251034l0.12096,-0.224487l0.134242,-0.21098l0.067358,-0.079176l0.067358,-0.066135l0.08064,-0.039588l0.08064,-0.013041l0.08064,0.013041l0.08064,0.039588l0.08064,0.066135l0.067358,0.079176l0.134242,0.21098l0.107678,0.224487l0.107678,0.251034l0.08064,0.21098l4.195186,10.706898l-9.896446,0l4.235506,-10.706898z"/>
   <path stroke="null" stroke-width="0" id="svg_9" fill="#afb3b4" d="m195.557867,38.458017l0,-3.934572l-14.131953,0l-0.268959,-0.013041l-0.228639,-0.026547l-0.187844,-0.026081l-0.147998,-0.039588l-0.134717,-0.053094l-0.093922,-0.052629l-0.08064,-0.039588l-0.067358,-0.053094l-0.12096,-0.131804l-0.093922,-0.145311l-0.054076,-0.145311l-0.04032,-0.158352l-0.027038,-0.290622l0,-0.250568l0,-20.925234l-4.840308,0l0,23.43371l0.013282,0.277115l0.027038,0.264075l0.04032,0.237527l0.053602,0.211446l0.16128,0.395879l0.094396,0.171858l0.107678,0.158352l0.2016,0.264075l0.214882,0.19794l0.242395,0.171392l0.268484,0.13227l0.282715,0.118764l0.295523,0.092217l0.323035,0.066135l0.322561,0.052629l0.322561,0.026547l0.336317,0.013506l17.210984,0z"/>
   <path stroke="null" stroke-width="0" id="svg_10" fill="#afb3b4" d="m48.765242,4.66066l-1.021758,0l-1.075835,0.013041l-0.524161,0.013041l-0.537917,0.013506l-0.578237,0.013041l-0.591519,0.026547l-1.089117,0.065669l-1.143193,0.092682l-1.102399,0.131804l-1.143193,0.171858l0,0.013041l-1.062078,0.211446l-1.048797,0.277115l-1.062078,0.34325l-1.008476,0.382838l-0.471033,0.211446l-0.456803,0.237527l-0.443995,0.250568l-0.443521,0.264075l-0.443995,0.290622l-0.416483,0.303662l-0.416957,0.33021l-0.403675,0.34325l0.013756,0l-0.376637,0.356291l-0.349599,0.382838l-0.336317,0.369798l-0.309279,0.395879l-0.282241,0.409385l-0.268959,0.409385l-0.255202,0.435467l-0.228639,0.435467l-0.013756,0l-0.214882,0.46248l-0.2016,0.475055l-0.202075,0.488561l-0.187844,0.528149l-0.175037,0.501602l-0.147998,0.514643l-0.134242,0.502068l-0.107678,0.501602l-0.013282,0l-0.2016,1.108927l-0.175037,1.095886l-0.12096,1.108927l-0.093922,1.135008l-0.040794,0.620831l-0.026564,0.593819l-0.027038,0.554696l-0.013282,0.528149l-0.027038,1.135474l0,1.08238l0,0.026547l0,0.924028l0.013282,1.003204l0.013756,0.475521l0.013282,0.514643l0.027038,0.554696l0.013282,0.580778l0,0.013041l0.027038,0.502068l0.053602,0.527683l0.04032,0.541656l0.067358,0.567271l0.16128,1.162021l0.188319,1.108927l0.241921,1.082846l0.147998,0.527683l0.16128,0.515108l0.389919,1.042792l0.430239,1.029751l0.242395,0.462014l0.268484,0.462014l0.282715,0.448973l0.295523,0.435933l0.323035,0.422426l0.349599,0.422426l0.376163,0.395879l0.403675,0.396345l0,0.013041l0.389919,0.34325l0.403201,0.316703l0.430239,0.303662l0.430239,0.290622l0,0l0.901273,0.528149l0.456803,0.224487l0.457277,0.21098l0,0l1.035515,0.396345l0.524161,0.171392l0.537917,0.158352l1.048797,0.264075l1.062553,0.224487l0.026564,0l0.591994,0.092682l0.564481,0.092217l1.075835,0.131804l1.142719,0.105723l1.102873,0.053094l0.604801,0.026081l0.564956,0.013506l0.551199,0.013041l0.510879,0.013041l1.062553,0.013506l1.008476,0l0.026564,0l0.995195,0l1.035515,-0.013506l0.79312,-0.013041l-0.175037,0.501602l-0.107204,0.528149l-0.04032,0.528149l0.026564,0.528149l0.094396,0.54119l0.16128,0.514643l0.228639,0.502068l0.309279,0.488096l0.214882,0.264075l0.228639,0.237993l-0.820158,0.026081l-0.83344,0.013506l-1.075835,0.013041l-1.048797,0l-1.062078,0l-1.102873,-0.013041l-1.183039,-0.026547l-1.156475,-0.026547l-1.290717,-0.079176l-1.264153,-0.118764l-1.304473,-0.158352l-1.250397,-0.184899l0,-0.013041l-0.67216,-0.118764l-0.67216,-0.13227l-0.672634,-0.158352l-0.658878,-0.184899l-1.317755,-0.422426l-0.645121,-0.237527l-0.645596,-0.264075l-0.013282,-0.013041l-0.658878,-0.303662l-0.645596,-0.317169l-0.631839,-0.34325l-0.605276,-0.369798l0,0l-0.591519,-0.395879l-0.578237,-0.435467l-0.564956,-0.462014l-0.564481,-0.488561l-0.04032,-0.026547l-0.537917,-0.54119l-0.524161,-0.554696l-0.484315,-0.580778l-0.470559,-0.607325l-0.430239,-0.607325l-0.389919,-0.633406l-0.376637,-0.660419l-0.336317,-0.659954l-0.295523,-0.646913l-0.268959,-0.646913l-0.241921,-0.659954l-0.228639,-0.660419l-0.215357,-0.659954l-0.174562,-0.67346l-0.16128,-0.672994l-0.147998,-0.686501l-0.12096,-0.660419l-0.12096,-0.659954l-0.094396,-0.633872l-0.08064,-0.620366l-0.12096,-1.21465l-0.08064,-1.280319l0,0l-0.04032,-1.109393l-0.027038,-1.148515l-0.013282,-1.042792l0,-0.990163l0,-1.175062l0.026564,-1.175062l0.013756,-0.646913l0.026564,-0.620366l0.027038,-0.594284l0.027038,-0.580778l0.107678,-1.267279l0.147524,-1.306867l0.202075,-1.280785l0.241921,-1.267279l0,0l0.147998,-0.67346l0.174562,-0.659954l0.188319,-0.633872l0.215357,-0.633406l0.228164,-0.607325l0.242395,-0.620831l0.282241,-0.620366l0.295997,-0.633872l0,-0.013041l0.322561,-0.620366l0.362881,-0.607325l0.389919,-0.594284l0.416957,-0.567737l0.430239,-0.554231l0.470559,-0.54119l0.484315,-0.515108l0.524161,-0.501602l0.04032,-0.026547l0.564956,-0.488561l0.578237,-0.462014l0.578237,-0.435467l0.591519,-0.396345l0.618558,-0.369332l0.631839,-0.356757l0.645596,-0.316703l0.645121,-0.290622l1.277435,-0.501602l1.291191,-0.422426l1.331037,-0.34325l1.331037,-0.277115l0.013282,0l1.264153,-0.184899l1.290717,-0.158352l1.264153,-0.105723l1.277435,-0.079176l1.156475,-0.039588l1.196321,-0.026547l1.102873,0l1.089117,0l1.062078,0l1.089117,0l0.699198,0.026547l0.672634,0.013041l-0.202075,0.607325l-0.147524,0.660419l-0.094396,0.672994l-0.026564,0.713048l0.013282,0.515108l0.053602,0.514643l0.08064,0.488561l0.12096,0.488561l-0.631839,-0.013506l-0.604801,-0.013041l-1.062553,-0.013041l-1.008476,0l-0.04032,0z"/>
   <path stroke="null" stroke-width="0" id="svg_11" fill="#afb3b4" d="m199.538171,14.034144l-0.027038,0.356291l-0.08064,0.409385l-0.12096,0.462014l-0.174562,0.488561l-0.215357,0.528149l-0.268959,0.554231l-0.295997,0.580778l-0.349599,0.581244l-0.389919,0.593819l-0.443521,0.594284l-0.470559,0.593819l-0.524635,0.581244l-0.551199,0.554231l-0.604801,0.54119l-0.645596,0.501602l-0.67216,0.46248l0.295523,-0.422426l0.255677,-0.396345l0.228639,-0.409385l0.188319,-0.382838l0.174562,-0.395879l0.134717,-0.369798l0.093922,-0.369332l0.08064,-0.356757l0.04032,-0.356291l0.027038,-0.34325l-0.013756,-0.34325l-0.04032,-0.33021l-0.08064,-0.316703l-0.093922,-0.316703l-0.12096,-0.303662l-0.16128,-0.303662l-0.242395,-0.396345l-0.295523,-0.382838l-0.349599,-0.369798l-0.389919,-0.369332l-0.416957,-0.382838l-0.349599,-0.396345l-0.282241,-0.395879l-0.215357,-0.395879l-0.174562,-0.396345l-0.107678,-0.395879l-0.053602,-0.396345l-0.013756,-0.382838l0.04032,-0.369332l0.08064,-0.356757l0.12096,-0.356291l0.161755,-0.33021l0.187844,-0.316703l0.228639,-0.290622l0.255677,-0.277115l0.268959,-0.251034l0.309279,-0.224021l0.322561,-0.198405l0.336317,-0.171392l0.349599,-0.13227l0.349599,-0.092217l0.376163,-0.066135l0.376637,-0.013041l0.363355,0.013041l0.376163,0.066135l0.376637,0.105723l0.362881,0.158352l0.349599,0.21098l0.336317,0.251034l0.322561,0.316703l0.309279,0.369798l0.282241,0.422426l0.228639,0.409385l0.188319,0.422426l0.16128,0.422426l0.121435,0.435467l0.08064,0.435933l0.066884,0.448973l0.027038,0.475055l0,0.475521z"/>
   <path stroke="null" stroke-width="0" id="svg_12" fill="#9edbf4" d="m62.413354,5.954486l-0.282241,-0.224487l-0.363355,-0.224487l-0.416957,-0.224487l-0.483841,-0.224487l-0.537917,-0.211446l-0.591519,-0.19794l-0.631839,-0.171392l-0.672634,-0.158352l-0.699198,-0.13227l-0.739518,-0.092217l-0.766556,-0.079176l-0.779838,-0.026547l-0.806402,0.013041l-0.806876,0.053094l-0.806876,0.105257l-0.806876,0.158817l0.510879,0.079176l0.471033,0.105257l0.456803,0.105723l0.416957,0.13227l0.389919,0.145311l0.376637,0.171392l0.335843,0.171858l0.323035,0.19794l0.295523,0.21098l0.255677,0.224487l0.241921,0.237527l0.215357,0.264075l0.188319,0.264075l0.174562,0.290622l0.134717,0.303662l0.12096,0.316703l0.12096,0.448973l0.067358,0.475055l0.04032,0.502068l-0.013756,0.54119l0,0.554231l0.054076,0.528149l0.093922,0.475521l0.134717,0.422426l0.187844,0.395879l0.215357,0.356291l0.241921,0.303662l0.282241,0.277581l0.295997,0.224487l0.322561,0.19794l0.349599,0.145311l0.349599,0.118764l0.363355,0.092217l0.376163,0.039588l0.376637,0.013506l0.376637,-0.026547l0.376637,-0.066135l0.362881,-0.092217l0.362881,-0.118764l0.336317,-0.158817l0.322561,-0.184433l0.295997,-0.224487l0.282241,-0.251034l0.241921,-0.277115l0.215357,-0.303662l0.174562,-0.34325l0.134717,-0.369798l0.093922,-0.382838l0.04032,-0.422426l-0.013282,-0.448973l-0.053602,-0.462014l-0.121435,-0.501602l-0.147524,-0.448973l-0.175037,-0.422426l-0.214882,-0.409385l-0.228639,-0.382838l-0.268959,-0.369332l-0.295997,-0.356757l-0.322561,-0.34325l-0.349599,-0.329744z"/>
   <path stroke="null" stroke-width="0" id="svg_13" fill="#e10014" d="m37.107519,23.671703l0,-0.488561l0.013282,-0.462014l0.013282,-0.448973l0.013756,-0.422426l0.067358,-0.805265l0.08064,-0.726089l0.107204,-0.660419l0.121435,-0.607325l0.147524,-0.554231l0.175037,-0.488561l0.188319,-0.448973l0.2016,-0.395879l0.228639,-0.369798l0.241921,-0.33021l0.403201,-0.435467l0.430713,-0.369798l0.470559,-0.316703l0.510879,-0.251034l0.537917,-0.21098l0.564481,-0.158352l0.578237,-0.13227l0.618558,-0.092217l0.618558,-0.053094l0.645596,-0.039588l0.67216,-0.026081l0.67216,0l1.331512,0.026081l0.645121,0.039588l0.631839,0.053094l0.618558,0.092217l0.591994,0.13227l0.564481,0.158352l0.551199,0.21098l0.511354,0.251034l0.483841,0.316703l0.443521,0.369798l0.403675,0.435467l0.147998,0.198405l0.16128,0.224021l0.147998,0.237993l0.147524,0.264075l0.134717,0.290156l0.134242,0.33021l0.121435,0.356291l0.12096,0.396345l0.107204,0.435467l0.094396,0.488561l0.08064,0.54119l0.067358,0.567737l0.066884,0.633872l0.04032,0.686501l0.027038,0.75217l0.013282,0.80573l-0.013282,0.805265l-0.027038,0.75217l-0.362881,-0.34325l-0.389919,-0.290156l-0.430239,-0.237527l-0.443995,-0.158817l-0.456803,-0.092217l-0.457277,-0.026547l-0.228639,0.026547l-0.228639,0.039588l-0.228639,0.052629l-0.214882,0.079176l-0.282715,0.13227l-0.255202,0.158352l-0.241921,0.184899l-0.215357,0.21098l-0.188319,0.237993l-0.16128,0.250568l-0.147998,0.277581l-0.107678,0.290156l-0.093922,0.303662l-0.053602,0.316703l-0.027038,0.317169l0,0.329744l0.027038,0.33021l0.053602,0.34325l0.093922,0.34325l0.121435,0.33021l0.147524,0.303662l0.161755,0.277115l0.174562,0.264075l0.2016,0.251034l0.2016,0.224021l0.228639,0.198405l0.242395,0.184433l0.255202,0.158817l0.013756,0.013041l0.026564,0.039588l0.12096,0.105723l0.12096,0.105723l0.040794,0.039588l0.026564,0.026081l0.2016,0.184899l0.175037,0.184899l0.134242,0.171858l0.12096,0.19794l-0.255202,0.19794l-0.268959,0.184899l-0.282241,0.158352l-0.282715,0.131804l-0.551199,0.211446l-0.564481,0.158352l-0.591994,0.13227l-0.604801,0.079176l-0.631839,0.065669l-0.645596,0.039588l-0.67216,0.026547l-0.672634,0l-0.67216,0l-0.67216,-0.026547l-0.645596,-0.039588l-0.618558,-0.065669l-0.618558,-0.079176l-0.578237,-0.13227l-0.564481,-0.158352l-0.537917,-0.211446l-0.510879,-0.264075l-0.470559,-0.316703l-0.430713,-0.382838l-0.403201,-0.448973l-0.214882,-0.290156l-0.202075,-0.33021l-0.188319,-0.369798l-0.187844,-0.40892l-0.175037,-0.475521l-0.16128,-0.54119l-0.134717,-0.594284l-0.12096,-0.672994l-0.053602,-0.356757l-0.04032,-0.382838l-0.027038,-0.40892l-0.04032,-0.422892l-0.027038,-0.435467l-0.013282,-0.475055l-0.013282,-0.475521l0,-0.514643z"/>
  </g>
 </g>
</svg>